<svg xmlns="http://www.w3.org/2000/svg" xmlns:xlink="http://www.w3.org/1999/xlink" width="500" zoomAndPan="magnify" viewBox="0 0 375 374.999991" height="500" preserveAspectRatio="xMidYMid meet" version="1.0"><defs><clipPath id="daee87f9f3"><path d="M 29.660156 8.875 L 345.410156 8.875 L 345.410156 365.875 L 29.660156 365.875 Z M 29.660156 8.875 " clip-rule="nonzero"/></clipPath></defs><g clip-path="url(#daee87f9f3)"><path fill="#000000" d="M 345.339844 349.488281 L 345.339844 366.105469 L 29.660156 366.105469 L 29.664062 349.488281 Z M 332.878906 324.566406 L 332.878906 345.335938 L 42.121094 345.335938 L 42.121094 324.566406 Z M 72.566406 100.269531 L 76.035156 102.019531 L 77.769531 130.03125 L 79.503906 175.546875 L 79.503906 219.320312 L 77.769531 273.882812 L 77.480469 310.644531 L 72.566406 312.105469 L 55.230469 312.105469 L 50.03125 310.644531 L 48.011719 273.882812 L 46.273438 219.609375 L 46.273438 175.839844 L 48.011719 130.03125 L 49.597656 101.871094 L 53.210938 100.269531 Z M 321.789062 100.269531 L 325.261719 102.019531 L 326.992188 130.03125 L 328.722656 175.546875 L 328.722656 219.320312 L 326.992188 273.882812 L 326.707031 310.644531 L 321.789062 312.105469 L 304.453125 312.105469 L 299.253906 310.644531 L 297.226562 273.882812 L 295.496094 219.609375 L 295.496094 175.839844 L 297.226562 130.03125 L 298.820312 101.871094 L 302.429688 100.269531 Z M 147.332031 100.269531 L 150.800781 102.019531 L 152.535156 130.03125 L 154.269531 175.546875 L 154.269531 219.320312 L 152.535156 273.882812 L 152.25 310.644531 L 147.332031 312.105469 L 129.996094 312.105469 L 124.792969 310.644531 L 122.773438 273.882812 L 121.039062 219.609375 L 121.039062 175.839844 L 122.773438 130.03125 L 124.363281 101.871094 L 127.972656 100.269531 Z M 242.867188 100.269531 L 246.335938 102.019531 L 248.070312 130.03125 L 249.804688 175.546875 L 249.804688 219.320312 L 248.070312 273.882812 L 247.785156 310.644531 L 242.867188 312.105469 L 225.53125 312.105469 L 220.328125 310.644531 L 218.304688 273.882812 L 216.574219 219.609375 L 216.574219 175.839844 L 218.304688 130.03125 L 219.898438 101.871094 L 223.511719 100.269531 Z M 332.878906 62.886719 L 332.878906 91.960938 L 42.121094 91.960938 L 42.121094 62.886719 Z M 184.507812 8.886719 L 337.03125 43.816406 L 330.917969 54.578125 L 38.796875 54.578125 L 29.660156 45.851562 Z M 184.507812 8.886719 " fill-opacity="1" fill-rule="evenodd"/></g></svg>