<svg xmlns="http://www.w3.org/2000/svg" xmlns:xlink="http://www.w3.org/1999/xlink" width="500" zoomAndPan="magnify" viewBox="0 0 375 374.999991" height="500" preserveAspectRatio="xMidYMid meet" version="1.0"><defs><clipPath id="id1"><path d="M 10.015625 10.015625 L 364.765625 10.015625 L 364.765625 364.765625 L 10.015625 364.765625 Z M 10.015625 10.015625 " clip-rule="nonzero"/></clipPath></defs><g clip-path="url(#id1)"><path fill="#011e53" d="M 225.179688 184.753906 L 225.25 184.820312 C 225.441406 185.011719 225.578125 185.21875 225.71875 185.425781 C 226.445312 186.652344 226.445312 188.140625 225.71875 189.351562 C 225.578125 189.558594 225.441406 189.765625 225.25 189.957031 L 225.179688 190.042969 C 225.042969 190.164062 221.429688 193.863281 217.019531 201.007812 C 218.472656 200.472656 219.976562 199.953125 221.53125 199.449219 C 221.964844 199.207031 222.449219 199.054688 222.96875 199 C 227.636719 197.566406 232.722656 196.320312 238.21875 195.351562 C 250.410156 193.242188 264.675781 192.585938 280.929688 194.695312 C 302.804688 197.53125 314.183594 204.015625 318.578125 210.726562 C 321.1875 214.703125 321.585938 218.800781 320.339844 222.5 C 319.164062 226.027344 316.484375 229.070312 312.851562 231.164062 C 307.371094 234.3125 299.554688 235.367188 291.566406 232.496094 C 289.492188 246.625 282.296875 282.679688 266.214844 252.070312 C 261.894531 243.855469 260.457031 236.734375 259.230469 230.578125 C 256.738281 218.300781 255.167969 210.5 223.867188 206.660156 C 219.25 208.132812 215.101562 209.792969 211.398438 211.503906 C 209.738281 215.132812 208.097656 219.214844 206.644531 223.761719 C 210.484375 255.167969 218.28125 256.738281 230.578125 259.230469 C 236.734375 260.457031 243.855469 261.894531 252.070312 266.214844 C 282.679688 282.296875 246.625 289.492188 232.496094 291.566406 C 235.367188 299.554688 234.3125 307.371094 231.164062 312.851562 C 229.070312 316.484375 226.027344 319.164062 222.5 320.339844 C 218.800781 321.585938 214.703125 321.1875 210.726562 318.578125 C 204.015625 314.183594 197.53125 302.804688 194.695312 280.929688 C 191.652344 257.449219 194.382812 238.082031 199 223.035156 C 199.054688 222.464844 199.226562 221.949219 199.503906 221.464844 C 205.207031 203.703125 213.457031 192.238281 217.433594 187.398438 C 213.457031 182.554688 205.207031 171.074219 199.503906 153.316406 C 199.226562 152.847656 199.054688 152.3125 199 151.742188 C 194.382812 136.695312 191.652344 117.328125 194.695312 93.847656 C 197.53125 71.972656 204.015625 60.609375 210.726562 56.203125 C 214.703125 53.589844 218.800781 53.210938 222.5 54.4375 C 226.027344 55.613281 229.070312 58.292969 231.164062 61.941406 C 234.3125 67.40625 235.367188 75.222656 232.496094 83.210938 C 246.625 85.289062 282.679688 92.480469 252.070312 108.578125 C 243.855469 112.886719 236.734375 114.320312 230.578125 115.566406 C 218.28125 118.039062 210.484375 119.613281 206.644531 151.015625 C 208.097656 155.5625 209.722656 159.644531 211.398438 163.273438 C 214.875 164.882812 218.765625 166.457031 223.070312 167.875 C 254.769531 164 256.464844 156.21875 259.144531 143.804688 C 260.441406 137.769531 261.945312 130.816406 266.214844 122.726562 C 282.296875 92.101562 289.492188 128.171875 291.566406 142.28125 C 299.554688 139.429688 307.371094 140.484375 312.851562 143.632812 C 316.484375 145.722656 319.164062 148.75 320.339844 152.277344 C 321.585938 155.976562 321.1875 160.09375 318.578125 164.054688 C 314.183594 170.761719 302.804688 177.246094 280.929688 180.082031 C 266.542969 181.949219 253.730469 181.65625 242.507812 180.101562 C 234.847656 179.027344 227.929688 177.367188 221.773438 175.398438 C 221.621094 175.363281 221.464844 175.3125 221.324219 175.257812 C 219.855469 174.792969 218.402344 174.289062 217.019531 173.773438 C 221.429688 180.929688 225.042969 184.613281 225.179688 184.753906 Z M 163.378906 211.519531 C 159.679688 209.808594 155.511719 208.132812 150.894531 206.660156 C 119.613281 210.5 118.039062 218.300781 115.566406 230.578125 C 114.320312 236.734375 112.886719 243.855469 108.578125 252.070312 C 92.480469 282.679688 85.289062 246.625 83.210938 232.496094 C 75.222656 235.367188 67.40625 234.3125 61.941406 231.164062 C 58.292969 229.070312 55.613281 226.027344 54.4375 222.5 C 53.210938 218.800781 53.589844 214.703125 56.203125 210.726562 C 60.609375 204.015625 71.972656 197.53125 93.847656 194.695312 C 108.113281 192.84375 120.855469 193.121094 132.011719 194.660156 C 139.308594 195.664062 145.914062 197.183594 151.828125 199 C 152.328125 199.070312 152.796875 199.207031 153.226562 199.449219 C 154.785156 199.953125 156.304688 200.472656 157.757812 200.988281 C 153.347656 193.863281 149.734375 190.164062 149.597656 190.042969 L 149.527344 189.957031 C 149.355469 189.765625 149.199219 189.558594 149.078125 189.351562 C 148.351562 188.140625 148.351562 186.652344 149.078125 185.425781 C 149.199219 185.21875 149.355469 185.011719 149.527344 184.820312 L 149.597656 184.753906 C 149.734375 184.613281 153.347656 180.929688 157.757812 173.789062 C 156.339844 174.308594 154.886719 174.808594 153.382812 175.292969 C 153.28125 175.328125 153.195312 175.363281 153.089844 175.378906 C 146.847656 177.367188 139.828125 179.046875 132.027344 180.117188 C 120.875 181.65625 108.128906 181.933594 93.847656 180.082031 C 71.972656 177.246094 60.609375 170.761719 56.203125 164.054688 C 53.589844 160.09375 53.210938 155.976562 54.4375 152.277344 C 55.613281 148.75 58.292969 145.722656 61.941406 143.632812 C 67.40625 140.484375 75.222656 139.429688 83.210938 142.28125 C 85.289062 128.171875 92.480469 92.101562 108.578125 122.726562 C 112.832031 130.816406 114.339844 137.769531 115.636719 143.804688 C 118.332031 156.21875 120.011719 164 151.707031 167.875 C 155.996094 166.457031 159.902344 164.882812 163.378906 163.273438 C 164.953125 159.851562 166.492188 156.03125 167.875 151.808594 C 164.019531 120.027344 156.238281 118.332031 143.804688 115.636719 C 137.769531 114.339844 130.816406 112.832031 122.726562 108.578125 C 92.101562 92.480469 128.171875 85.289062 142.28125 83.210938 C 139.429688 75.222656 140.484375 67.40625 143.632812 61.941406 C 145.722656 58.292969 148.75 55.613281 152.277344 54.4375 C 155.976562 53.210938 160.09375 53.589844 164.054688 56.203125 C 170.761719 60.609375 177.246094 71.972656 180.082031 93.847656 C 183.214844 117.898438 180.273438 137.613281 175.449219 152.8125 C 175.398438 153.089844 175.3125 153.367188 175.191406 153.625 C 169.484375 171.210938 161.304688 182.574219 157.34375 187.398438 C 161.304688 192.203125 169.484375 203.582031 175.191406 221.167969 C 175.3125 221.410156 175.398438 221.6875 175.449219 221.964844 C 180.273438 237.164062 183.214844 256.894531 180.082031 280.929688 C 177.246094 302.804688 170.761719 314.183594 164.054688 318.578125 C 160.09375 321.1875 155.976562 321.585938 152.277344 320.339844 C 148.75 319.164062 145.722656 316.484375 143.632812 312.851562 C 140.484375 307.371094 139.429688 299.554688 142.28125 291.566406 C 128.171875 289.492188 92.101562 282.296875 122.726562 266.214844 C 130.816406 261.945312 137.769531 260.441406 143.804688 259.144531 C 156.238281 256.464844 164.019531 254.769531 167.875 222.96875 C 166.492188 218.75 164.953125 214.925781 163.378906 211.519531 Z M 132.339844 202.339844 C 131.890625 202.285156 131.457031 202.21875 131.007812 202.148438 C 120.425781 200.695312 108.335938 200.4375 94.796875 202.199219 C 75.5 204.691406 65.902344 209.757812 62.546875 214.875 C 61.320312 216.742188 61.09375 218.558594 61.613281 220.113281 C 62.203125 221.859375 63.65625 223.433594 65.695312 224.609375 C 70.277344 227.238281 77.382812 227.652344 84.421875 223.609375 C 86.238281 222.570312 88.554688 223.210938 89.59375 225.027344 C 89.902344 225.542969 90.058594 226.132812 90.09375 226.703125 C 90.40625 229.539062 94.261719 263.035156 101.871094 248.542969 C 105.710938 241.246094 107.023438 234.742188 108.148438 229.105469 C 110.691406 216.535156 112.46875 207.664062 132.339844 202.339844 Z M 279.996094 202.199219 C 265.886719 200.367188 253.367188 200.730469 242.457031 202.355469 C 262.308594 207.664062 264.105469 216.535156 266.628906 229.105469 C 267.773438 234.742188 269.085938 241.246094 272.90625 248.542969 C 280.535156 263.035156 284.390625 229.539062 284.703125 226.703125 C 284.71875 226.132812 284.890625 225.542969 285.183594 225.027344 C 286.222656 223.210938 288.539062 222.570312 290.355469 223.609375 C 297.410156 227.652344 304.519531 227.238281 309.082031 224.609375 C 311.125 223.433594 312.578125 221.859375 313.164062 220.113281 C 313.683594 218.558594 313.457031 216.742188 312.246094 214.875 C 308.875 209.757812 299.277344 204.691406 279.996094 202.199219 Z M 241.417969 172.285156 C 242.128906 172.386719 242.835938 172.492188 243.546875 172.59375 C 254.179688 174.082031 266.335938 174.359375 279.996094 172.59375 C 299.277344 170.089844 308.875 165.023438 312.246094 159.902344 C 313.457031 158.035156 313.683594 156.238281 313.164062 154.679688 C 312.578125 152.933594 311.125 151.34375 309.082031 150.167969 C 304.519531 147.539062 297.410156 147.125 290.355469 151.171875 C 288.539062 152.207031 286.222656 151.585938 285.183594 149.769531 C 284.890625 149.234375 284.71875 148.664062 284.703125 148.09375 C 284.390625 145.238281 280.535156 111.746094 272.90625 126.253906 C 269.15625 133.394531 267.753906 139.828125 266.5625 145.394531 C 263.8125 158.121094 261.875 166.976562 241.417969 172.285156 Z M 131.023438 172.628906 C 131.820312 172.507812 132.597656 172.40625 133.359375 172.285156 C 112.902344 166.976562 110.984375 158.121094 108.234375 145.394531 C 107.023438 139.828125 105.640625 133.394531 101.871094 126.253906 C 94.261719 111.746094 90.40625 145.238281 90.09375 148.09375 C 90.058594 148.664062 89.902344 149.234375 89.59375 149.769531 C 88.554688 151.585938 86.238281 152.207031 84.421875 151.171875 C 77.382812 147.125 70.277344 147.539062 65.695312 150.167969 C 63.65625 151.34375 62.203125 152.933594 61.613281 154.679688 C 61.09375 156.238281 61.320312 158.035156 62.546875 159.902344 C 65.902344 165.023438 75.5 170.089844 94.796875 172.59375 C 108.355469 174.34375 120.441406 174.082031 131.023438 172.628906 Z M 10.015625 187.398438 C 10.015625 181.015625 12.589844 175.242188 16.777344 171.074219 C 20.960938 166.890625 26.71875 164.3125 33.097656 164.3125 C 39.460938 164.3125 45.238281 166.890625 49.421875 171.074219 C 53.589844 175.242188 56.183594 181.015625 56.183594 187.398438 C 56.183594 193.761719 53.589844 199.535156 49.421875 203.703125 C 45.238281 207.890625 39.460938 210.464844 33.097656 210.464844 C 26.71875 210.464844 20.960938 207.890625 16.777344 203.703125 C 12.589844 199.535156 10.015625 193.761719 10.015625 187.398438 Z M 22.136719 176.433594 C 19.335938 179.234375 17.605469 183.109375 17.605469 187.398438 C 17.605469 191.667969 19.335938 195.542969 22.136719 198.34375 C 24.9375 201.144531 28.8125 202.890625 33.097656 202.890625 C 37.371094 202.890625 41.242188 201.144531 44.046875 198.34375 C 46.847656 195.542969 48.59375 191.667969 48.59375 187.398438 C 48.59375 183.109375 46.847656 179.234375 44.046875 176.433594 C 41.242188 173.632812 37.371094 171.902344 33.097656 171.902344 C 28.8125 171.902344 24.9375 173.632812 22.136719 176.433594 Z M 357.191406 187.398438 C 357.191406 183.109375 355.445312 179.234375 352.640625 176.433594 C 349.839844 173.632812 345.96875 171.902344 341.695312 171.902344 C 337.40625 171.902344 333.535156 173.632812 330.734375 176.433594 C 327.933594 179.234375 326.203125 183.109375 326.203125 187.398438 C 326.203125 191.667969 327.933594 195.542969 330.734375 198.34375 C 333.535156 201.144531 337.40625 202.890625 341.695312 202.890625 C 345.96875 202.890625 349.839844 201.144531 352.640625 198.34375 C 355.445312 195.542969 357.191406 191.667969 357.191406 187.398438 Z M 358.003906 171.074219 C 362.1875 175.242188 364.765625 181.015625 364.765625 187.398438 C 364.765625 193.761719 362.1875 199.535156 358.003906 203.703125 C 353.835938 207.890625 348.058594 210.464844 341.695312 210.464844 C 335.316406 210.464844 329.539062 207.890625 325.371094 203.703125 C 321.1875 199.535156 318.609375 193.761719 318.609375 187.398438 C 318.609375 181.015625 321.1875 175.242188 325.371094 171.074219 C 329.539062 166.890625 335.316406 164.3125 341.695312 164.3125 C 348.058594 164.3125 353.835938 166.890625 358.003906 171.074219 Z M 202.339844 242.386719 C 200.710938 253.28125 200.351562 265.816406 202.199219 279.996094 C 204.691406 299.277344 209.757812 308.875 214.875 312.246094 C 216.742188 313.457031 218.558594 313.683594 220.113281 313.164062 C 221.859375 312.578125 223.433594 311.125 224.609375 309.082031 C 227.238281 304.519531 227.652344 297.410156 223.609375 290.355469 C 222.570312 288.539062 223.210938 286.222656 225.027344 285.183594 C 225.542969 284.890625 226.132812 284.71875 226.703125 284.703125 C 229.539062 284.390625 263.035156 280.535156 248.542969 272.90625 C 241.246094 269.085938 234.742188 267.773438 229.105469 266.628906 C 216.519531 264.105469 207.648438 262.308594 202.339844 242.386719 Z M 225.71875 189.351562 Z M 202.199219 94.796875 C 200.351562 108.976562 200.710938 121.515625 202.339844 132.390625 C 207.648438 112.46875 216.519531 110.691406 229.105469 108.148438 C 234.742188 107.023438 241.246094 105.710938 248.542969 101.871094 C 263.035156 94.261719 229.539062 90.40625 226.703125 90.09375 C 226.132812 90.058594 225.542969 89.902344 225.027344 89.59375 C 223.210938 88.554688 222.570312 86.238281 223.609375 84.421875 C 227.652344 77.382812 227.238281 70.277344 224.609375 65.695312 C 223.433594 63.65625 221.859375 62.203125 220.113281 61.613281 C 218.558594 61.09375 216.742188 61.320312 214.875 62.546875 C 209.757812 65.902344 204.691406 75.5 202.199219 94.796875 Z M 172.300781 133.429688 C 174.046875 122.308594 174.480469 109.425781 172.59375 94.796875 C 170.089844 75.5 165.023438 65.902344 159.902344 62.546875 C 158.035156 61.320312 156.238281 61.09375 154.679688 61.613281 C 152.933594 62.203125 151.34375 63.65625 150.167969 65.695312 C 147.539062 70.277344 147.125 77.382812 151.171875 84.421875 C 152.207031 86.238281 151.585938 88.554688 149.769531 89.59375 C 149.234375 89.902344 148.664062 90.058594 148.09375 90.09375 C 145.238281 90.40625 111.746094 94.261719 126.253906 101.871094 C 133.394531 105.640625 139.828125 107.023438 145.394531 108.234375 C 158.121094 110.984375 166.992188 112.902344 172.300781 133.429688 Z M 149.0625 185.445312 L 149.078125 185.425781 Z M 172.59375 279.996094 C 174.480469 265.367188 174.046875 252.46875 172.300781 241.347656 C 166.992188 261.875 158.121094 263.792969 145.394531 266.5625 C 139.828125 267.753906 133.394531 269.15625 126.253906 272.90625 C 111.746094 280.535156 145.238281 284.390625 148.09375 284.703125 C 148.664062 284.71875 149.234375 284.890625 149.769531 285.183594 C 151.585938 286.222656 152.207031 288.539062 151.171875 290.355469 C 147.125 297.410156 147.539062 304.519531 150.167969 309.082031 C 151.34375 311.125 152.933594 312.578125 154.679688 313.164062 C 156.238281 313.683594 158.035156 313.457031 159.902344 312.246094 C 165.023438 308.875 170.089844 299.277344 172.59375 279.996094 Z M 187.398438 364.765625 C 181.015625 364.765625 175.242188 362.1875 171.074219 358.003906 C 166.890625 353.835938 164.3125 348.058594 164.3125 341.695312 C 164.3125 335.316406 166.890625 329.539062 171.074219 325.371094 C 175.242188 321.1875 181.015625 318.609375 187.398438 318.609375 C 193.761719 318.609375 199.535156 321.1875 203.703125 325.371094 C 207.890625 329.539062 210.464844 335.316406 210.464844 341.695312 C 210.464844 348.058594 207.890625 353.835938 203.703125 358.003906 C 199.535156 362.1875 193.761719 364.765625 187.398438 364.765625 Z M 176.433594 352.640625 C 179.234375 355.445312 183.109375 357.191406 187.398438 357.191406 C 191.667969 357.191406 195.542969 355.445312 198.34375 352.640625 C 201.144531 349.839844 202.890625 345.96875 202.890625 341.695312 C 202.890625 337.40625 201.144531 333.535156 198.34375 330.734375 C 195.542969 327.933594 191.667969 326.203125 187.398438 326.203125 C 183.109375 326.203125 179.234375 327.933594 176.433594 330.734375 C 173.632812 333.535156 171.902344 337.40625 171.902344 341.695312 C 171.902344 345.96875 173.632812 349.839844 176.433594 352.640625 Z M 187.398438 17.605469 C 183.109375 17.605469 179.234375 19.335938 176.433594 22.136719 C 173.632812 24.9375 171.902344 28.8125 171.902344 33.097656 C 171.902344 37.371094 173.632812 41.242188 176.433594 44.046875 C 179.234375 46.847656 183.109375 48.59375 187.398438 48.59375 C 191.667969 48.59375 195.542969 46.847656 198.34375 44.046875 C 201.144531 41.242188 202.890625 37.371094 202.890625 33.097656 C 202.890625 28.8125 201.144531 24.9375 198.34375 22.136719 C 195.542969 19.335938 191.667969 17.605469 187.398438 17.605469 Z M 171.074219 16.777344 C 175.242188 12.589844 181.015625 10.015625 187.398438 10.015625 C 193.761719 10.015625 199.535156 12.589844 203.703125 16.777344 C 207.890625 20.960938 210.464844 26.71875 210.464844 33.097656 C 210.464844 39.460938 207.890625 45.238281 203.703125 49.421875 C 199.535156 53.589844 193.761719 56.183594 187.398438 56.183594 C 181.015625 56.183594 175.242188 53.589844 171.074219 49.421875 C 166.890625 45.238281 164.3125 39.460938 164.3125 33.097656 C 164.3125 26.71875 166.890625 20.960938 171.074219 16.777344 Z M 171.074219 16.777344 " fill-opacity="1" fill-rule="nonzero"/></g></svg>