<svg xmlns="http://www.w3.org/2000/svg" xmlns:xlink="http://www.w3.org/1999/xlink" width="500" zoomAndPan="magnify" viewBox="0 0 375 374.999991" height="500" preserveAspectRatio="xMidYMid meet" version="1.0"><defs><clipPath id="b83ea55b97"><path d="M 8.800781 8.800781 L 366.550781 8.800781 L 366.550781 366.550781 L 8.800781 366.550781 Z M 8.800781 8.800781 " clip-rule="nonzero"/></clipPath></defs><g clip-path="url(#b83ea55b97)"><path fill="#333333" d="M 366.550781 187.675781 C 366.550781 190.601562 366.476562 193.527344 366.335938 196.453125 C 366.191406 199.375 365.976562 202.292969 365.6875 205.207031 C 365.402344 208.121094 365.042969 211.023438 364.613281 213.921875 C 364.183594 216.816406 363.683594 219.699219 363.113281 222.570312 C 362.542969 225.441406 361.898438 228.296875 361.1875 231.136719 C 360.476562 233.976562 359.695312 236.796875 358.847656 239.597656 C 357.996094 242.402344 357.078125 245.179688 356.09375 247.9375 C 355.105469 250.691406 354.054688 253.421875 352.933594 256.128906 C 351.8125 258.832031 350.628906 261.507812 349.375 264.152344 C 348.125 266.800781 346.808594 269.414062 345.429688 271.996094 C 344.046875 274.578125 342.605469 277.125 341.101562 279.636719 C 339.597656 282.144531 338.03125 284.617188 336.402344 287.050781 C 334.777344 289.488281 333.09375 291.878906 331.347656 294.230469 C 329.605469 296.582031 327.804688 298.890625 325.945312 301.152344 C 324.089844 303.414062 322.179688 305.628906 320.210938 307.800781 C 318.246094 309.96875 316.226562 312.089844 314.160156 314.160156 C 312.089844 316.226562 309.96875 318.246094 307.800781 320.210938 C 305.628906 322.179688 303.414062 324.089844 301.152344 325.945312 C 298.890625 327.804688 296.582031 329.605469 294.230469 331.347656 C 291.878906 333.09375 289.484375 334.777344 287.050781 336.402344 C 284.617188 338.03125 282.144531 339.597656 279.632812 341.101562 C 277.125 342.605469 274.578125 344.046875 271.996094 345.429688 C 269.414062 346.808594 266.800781 348.125 264.152344 349.375 C 261.507812 350.628906 258.832031 351.8125 256.128906 352.933594 C 253.421875 354.054688 250.691406 355.105469 247.9375 356.09375 C 245.179688 357.078125 242.402344 357.996094 239.597656 358.847656 C 236.796875 359.695312 233.976562 360.476562 231.136719 361.1875 C 228.296875 361.898438 225.441406 362.542969 222.570312 363.113281 C 219.699219 363.683594 216.816406 364.183594 213.921875 364.613281 C 211.023438 365.042969 208.121094 365.402344 205.207031 365.6875 C 202.292969 365.976562 199.375 366.191406 196.453125 366.335938 C 193.527344 366.476562 190.601562 366.550781 187.675781 366.550781 C 184.746094 366.550781 181.820312 366.476562 178.898438 366.335938 C 175.972656 366.191406 173.054688 365.976562 170.140625 365.6875 C 167.226562 365.402344 164.324219 365.042969 161.429688 364.613281 C 158.53125 364.183594 155.648438 363.683594 152.777344 363.113281 C 149.90625 362.542969 147.050781 361.898438 144.210938 361.1875 C 141.371094 360.476562 138.550781 359.695312 135.75 358.847656 C 132.949219 357.996094 130.167969 357.078125 127.414062 356.09375 C 124.65625 355.105469 121.925781 354.054688 119.222656 352.933594 C 116.515625 351.8125 113.84375 350.628906 111.195312 349.375 C 108.550781 348.125 105.933594 346.808594 103.355469 345.429688 C 100.773438 344.046875 98.226562 342.605469 95.714844 341.101562 C 93.203125 339.597656 90.730469 338.03125 88.296875 336.402344 C 85.863281 334.777344 83.46875 333.09375 81.117188 331.347656 C 78.769531 329.605469 76.460938 327.804688 74.199219 325.945312 C 71.933594 324.089844 69.71875 322.179688 67.550781 320.210938 C 65.378906 318.246094 63.261719 316.226562 61.191406 314.160156 C 59.121094 312.089844 57.101562 309.96875 55.136719 307.800781 C 53.171875 305.628906 51.257812 303.414062 49.402344 301.152344 C 47.546875 298.890625 45.746094 296.582031 44 294.230469 C 42.257812 291.878906 40.570312 289.488281 38.945312 287.050781 C 37.320312 284.617188 35.753906 282.144531 34.25 279.636719 C 32.742188 277.125 31.300781 274.578125 29.921875 271.996094 C 28.539062 269.414062 27.226562 266.800781 25.972656 264.152344 C 24.722656 261.507812 23.535156 258.832031 22.414062 256.128906 C 21.296875 253.421875 20.242188 250.691406 19.257812 247.9375 C 18.269531 245.179688 17.351562 242.402344 16.5 239.597656 C 15.652344 236.796875 14.871094 233.976562 14.160156 231.136719 C 13.449219 228.296875 12.808594 225.441406 12.238281 222.570312 C 11.664062 219.699219 11.164062 216.816406 10.734375 213.921875 C 10.304688 211.023438 9.949219 208.121094 9.660156 205.207031 C 9.375 202.292969 9.160156 199.375 9.015625 196.453125 C 8.871094 193.527344 8.800781 190.601562 8.800781 187.675781 C 8.800781 184.746094 8.871094 181.820312 9.015625 178.898438 C 9.160156 175.972656 9.375 173.054688 9.660156 170.140625 C 9.949219 167.230469 10.304688 164.324219 10.734375 161.429688 C 11.164062 158.53125 11.664062 155.648438 12.238281 152.777344 C 12.808594 149.90625 13.449219 147.050781 14.160156 144.210938 C 14.871094 141.371094 15.652344 138.550781 16.5 135.75 C 17.351562 132.949219 18.269531 130.167969 19.257812 127.414062 C 20.242188 124.65625 21.296875 121.925781 22.414062 119.222656 C 23.535156 116.519531 24.722656 113.84375 25.972656 111.195312 C 27.226562 108.550781 28.539062 105.933594 29.921875 103.355469 C 31.300781 100.773438 32.742188 98.226562 34.25 95.714844 C 35.753906 93.203125 37.320312 90.730469 38.945312 88.296875 C 40.570312 85.863281 42.257812 83.46875 44 81.117188 C 45.746094 78.769531 47.546875 76.460938 49.402344 74.199219 C 51.257812 71.933594 53.171875 69.71875 55.136719 67.550781 C 57.101562 65.378906 59.121094 63.261719 61.191406 61.191406 C 63.261719 59.121094 65.378906 57.101562 67.550781 55.136719 C 69.71875 53.171875 71.933594 51.257812 74.199219 49.402344 C 76.460938 47.546875 78.769531 45.746094 81.117188 44 C 83.46875 42.257812 85.863281 40.570312 88.296875 38.945312 C 90.730469 37.320312 93.203125 35.753906 95.714844 34.25 C 98.226562 32.742188 100.773438 31.300781 103.355469 29.921875 C 105.933594 28.542969 108.550781 27.226562 111.195312 25.972656 C 113.84375 24.722656 116.515625 23.535156 119.222656 22.414062 C 121.925781 21.296875 124.65625 20.242188 127.414062 19.257812 C 130.167969 18.269531 132.949219 17.351562 135.75 16.503906 C 138.550781 15.652344 141.371094 14.871094 144.210938 14.160156 C 147.050781 13.449219 149.90625 12.808594 152.777344 12.238281 C 155.648438 11.664062 158.53125 11.164062 161.429688 10.734375 C 164.324219 10.304688 167.226562 9.949219 170.140625 9.660156 C 173.054688 9.375 175.972656 9.160156 178.898438 9.015625 C 181.820312 8.871094 184.746094 8.800781 187.675781 8.800781 C 190.601562 8.800781 193.527344 8.871094 196.453125 9.015625 C 199.375 9.160156 202.292969 9.375 205.207031 9.660156 C 208.121094 9.949219 211.023438 10.304688 213.921875 10.734375 C 216.816406 11.164062 219.699219 11.664062 222.570312 12.238281 C 225.441406 12.808594 228.296875 13.449219 231.136719 14.160156 C 233.976562 14.871094 236.796875 15.652344 239.597656 16.503906 C 242.402344 17.351562 245.179688 18.269531 247.9375 19.257812 C 250.691406 20.242188 253.421875 21.296875 256.128906 22.414062 C 258.832031 23.535156 261.507812 24.722656 264.152344 25.972656 C 266.800781 27.226562 269.414062 28.542969 271.996094 29.921875 C 274.578125 31.300781 277.125 32.742188 279.632812 34.25 C 282.144531 35.753906 284.617188 37.320312 287.050781 38.945312 C 289.484375 40.570312 291.878906 42.257812 294.230469 44 C 296.582031 45.746094 298.890625 47.546875 301.152344 49.402344 C 303.414062 51.257812 305.628906 53.171875 307.800781 55.136719 C 309.96875 57.101562 312.089844 59.121094 314.160156 61.191406 C 316.226562 63.261719 318.246094 65.378906 320.210938 67.550781 C 322.179688 69.71875 324.089844 71.933594 325.945312 74.199219 C 327.804688 76.460938 329.605469 78.769531 331.347656 81.117188 C 333.09375 83.46875 334.777344 85.863281 336.402344 88.296875 C 338.03125 90.730469 339.597656 93.203125 341.101562 95.714844 C 342.605469 98.226562 344.046875 100.773438 345.429688 103.355469 C 346.808594 105.933594 348.125 108.550781 349.375 111.195312 C 350.628906 113.84375 351.8125 116.519531 352.933594 119.222656 C 354.054688 121.925781 355.105469 124.65625 356.09375 127.414062 C 357.078125 130.167969 357.996094 132.949219 358.847656 135.75 C 359.695312 138.550781 360.476562 141.371094 361.1875 144.210938 C 361.898438 147.050781 362.542969 149.90625 363.113281 152.777344 C 363.683594 155.648438 364.183594 158.53125 364.613281 161.429688 C 365.042969 164.324219 365.402344 167.230469 365.6875 170.140625 C 365.976562 173.054688 366.191406 175.972656 366.335938 178.898438 C 366.476562 181.820312 366.550781 184.746094 366.550781 187.675781 Z M 366.550781 187.675781 " fill-opacity="1" fill-rule="nonzero"/></g><path fill="#ffffff" d="M 100.53125 109.472656 L 186.023438 89.0625 L 270.230469 108.347656 L 266.855469 114.289062 L 105.574219 114.289062 " fill-opacity="1" fill-rule="evenodd"/><path fill="#ffffff" d="M 107.410156 118.875 L 267.9375 118.875 L 267.9375 134.929688 L 107.410156 134.929688 Z M 107.410156 118.875 " fill-opacity="1" fill-rule="evenodd"/><path fill="#ffffff" d="M 107.410156 263.351562 L 267.9375 263.351562 L 267.9375 274.820312 L 107.410156 274.820312 Z M 107.410156 263.351562 " fill-opacity="1" fill-rule="evenodd"/><path fill="#ffffff" d="M 100.53125 277.113281 L 274.820312 277.113281 L 274.820312 286.285156 L 100.53125 286.285156 Z M 100.53125 277.113281 " fill-opacity="1" fill-rule="evenodd"/><path fill="#ffffff" d="M 111.539062 140.398438 L 113.535156 139.515625 L 124.21875 139.515625 L 126.132812 140.484375 L 127.089844 155.949219 L 128.050781 181.078125 L 128.050781 205.242188 L 127.089844 235.371094 L 126.933594 255.664062 L 124.21875 256.472656 L 114.648438 256.472656 L 111.777344 255.664062 L 110.660156 235.371094 L 109.703125 205.402344 L 109.703125 181.238281 L 110.660156 155.949219 Z M 111.539062 140.398438 " fill-opacity="1" fill-rule="evenodd"/><path fill="#ffffff" d="M 249.132812 140.398438 L 251.128906 139.515625 L 261.816406 139.515625 L 263.734375 140.484375 L 264.691406 155.949219 L 265.644531 181.078125 L 265.644531 205.242188 L 264.691406 235.371094 L 264.53125 255.664062 L 261.816406 256.472656 L 252.246094 256.472656 L 249.375 255.664062 L 248.257812 235.371094 L 247.300781 205.402344 L 247.300781 181.238281 L 248.257812 155.949219 Z M 249.132812 140.398438 " fill-opacity="1" fill-rule="evenodd"/><path fill="#ffffff" d="M 152.816406 140.398438 L 154.808594 139.515625 L 165.5 139.515625 L 167.414062 140.484375 L 168.371094 155.949219 L 169.328125 181.078125 L 169.328125 205.242188 L 168.371094 235.371094 L 168.214844 255.664062 L 165.5 256.472656 L 155.925781 256.472656 L 153.054688 255.664062 L 151.9375 235.371094 L 150.980469 205.402344 L 150.980469 181.238281 L 151.9375 155.949219 Z M 152.816406 140.398438 " fill-opacity="1" fill-rule="evenodd"/><path fill="#ffffff" d="M 205.5625 140.398438 L 207.558594 139.515625 L 218.242188 139.515625 L 220.160156 140.484375 L 221.113281 155.949219 L 222.074219 181.078125 L 222.074219 205.242188 L 221.113281 235.371094 L 220.960938 255.664062 L 218.242188 256.472656 L 208.671875 256.472656 L 205.800781 255.664062 L 204.683594 235.371094 L 203.726562 205.402344 L 203.726562 181.238281 L 204.683594 155.949219 Z M 205.5625 140.398438 " fill-opacity="1" fill-rule="evenodd"/></svg>